{"title":"I.Kissed.A.Girl.And.I.Liked.It.XXX.DVDRip.XviD-CLiT","uid":7755383,"size":733204480,"categoryP":"porn","categoryS":"movies","magnet":"?xt=urn:btih:dbb1d1400b3438ffc0a59e62966746884151a3a1&amp;dn=I.Kissed.A.Girl.And.I.Liked.It.XXX.DVDRip.XviD-CLiT&amp;tr=udp%3A%2F%2Ftracker.openbittorrent.com%3A80&amp;tr=udp%3A%2F%2Fopen.demonii.com%3A1337&amp;tr=udp%3A%2F%2Ftracker.coppersurfer.tk%3A6969&amp;tr=udp%3A%2F%2Fexodus.desync.com%3A6969","seeders":0,"leechers":1,"uploader":"R0thschild","files":2,"time":1351038639,"description":"Gallery: \n &lt;a href=&quot;\nhttp://imagedomino.com/?g=261453&quot; rel=&quot;nofollow&quot; target=&quot;_NEW&quot;&gt;\nhttp://imagedomino.com/?g=261453&lt;/a&gt;\n\nVideo\nFormat                           : MPEG-4 Visual\nFormat profile                   : Streaming Video@L1\nFormat settings, BVOP            : Yes\nFormat settings, QPel            : No\nFormat settings, GMC             : No warppoints\nFormat settings, Matrix          : Default\nCodec ID                         : XVID\nCodec ID/Hint                    : XviD\nDuration                         : 1h 9mn\nBit rate                         : 1 258 Kbps\nWidth                            : 512 pixels\nHeight                           : 288 pixels\nDisplay aspect ratio             : 16/9\nFrame rate                       : 29.970 fps\nResolution                       : 24 bits\nColorimetry                      : 4:2:0\nScan type                        : Progressive\nBits/(Pixel*Frame)               : 0.285\nStream size                      : 630 MiB (90%)\nWriting library                  : XviD 1.1.2 (UTC 2006-11-01)\n\nAudio\nFormat                           : MPEG Audio\nFormat version                   : Version 1\nFormat profile                   : Layer 3\nCodec ID                         : 55\nCodec ID/Hint                    : MP3\nDuration                         : 1h 9mn\nBit rate mode                    : Variable\nBit rate                         : 125 Kbps\nChannel(s)                       : 2 channels\nSampling rate                    : 48.0 KHz\nResolution                       : 16 bits\nStream size                      : 62.6 MiB (9%)\nAlignment                        : Aligned on interleaves\nInterleave, duration             : 24 ms (0.72 video frame)\nInterleave, preload duration     : 470 ms","torrent":{"xt":"urn:btih:dbb1d1400b3438ffc0a59e62966746884151a3a1","amp;dn":"I.Kissed.A.Girl.And.I.Liked.It.XXX.DVDRip.XviD-CLiT","amp;tr":["udp%3A%2F%2Ftracker.openbittorrent.com%3A80","udp%3A%2F%2Fopen.demonii.com%3A1337","udp%3A%2F%2Ftracker.coppersurfer.tk%3A6969","udp%3A%2F%2Fexodus.desync.com%3A6969"],"infoHash":"dbb1d1400b3438ffc0a59e62966746884151a3a1","infoHashBuffer":{"type":"Buffer","data":[219,177,209,64,11,52,56,255,192,165,158,98,150,103,70,136,65,81,163,161]},"announce":[],"urlList":[]}}